<svg width="180" height="180" viewBox="0 -45 90 180" fill="none" xmlns="http://www.w3.org/2000/svg">
<path d="M96 48C96 74.5097 74.5097 96 48 96C21.4903 96 0 74.5097 0 48C0 21.4903 21.4903 0 48 0C74.5097 0 96 21.4903 96 48Z" fill="#EBF4FC"/>
<path d="M75 48C75 62.9117 62.9117 75 48 75C33.0883 75 21 62.9117 21 48C21 33.0883 33.0883 21 48 21C62.9117 21 75 33.0883 75 48Z" fill="#388FE2"/>
<path d="M70 48C70 60.1503 60.1503 70 48 70C35.8497 70 26 60.1503 26 48C26 35.8497 35.8497 26 48 26C60.1503 26 70 35.8497 70 48Z" stroke="black" stroke-width="3"/>
<path fill-rule="evenodd" clip-rule="evenodd" d="M45.8455 39.5454C46.5236 37.4849 49.4764 37.4849 50.1545 39.5454L51.4708 43.5449H55.7303C57.9248 43.5449 58.8372 46.3174 57.0618 47.5909L53.6158 50.0627L54.9321 54.0622C55.6102 56.1227 53.2214 57.8362 51.446 56.5627L48 54.0909L44.554 56.5627C42.7786 57.8362 40.3898 56.1227 41.0679 54.0622L42.3842 50.0627L38.9382 47.5909C37.1628 46.3174 38.0752 43.5449 40.2697 43.5449H44.5292L45.8455 39.5454ZM48 42.6491L47.2324 44.9816C46.9291 45.9031 46.0593 46.527 45.0779 46.527H42.5937L44.6034 47.9685C45.3974 48.538 45.7297 49.5475 45.4264 50.4691L44.6588 52.8015L46.6684 51.36C47.4624 50.7905 48.5376 50.7905 49.3316 51.36L51.3412 52.8015L50.5736 50.4691C50.2703 49.5475 50.6026 48.538 51.3966 47.9685L53.4063 46.527H50.9221C49.9407 46.527 49.0709 45.9031 48.7676 44.9816L48 42.6491Z" fill="black"/>
</svg>
